<svg width="14" height="17" viewBox="0 0 14 17" fill="none" xmlns="http://www.w3.org/2000/svg">
<path d="M0 13.5C0 13.3542 0.15625 13.1354 0.46875 12.8438C0.78125 12.5521 1.10417 12.1354 1.4375 11.5938C1.77083 11.0312 2.01042 10.4375 2.15625 9.8125C2.30208 9.1875 2.375 8.63542 2.375 8.15625C2.375 7.59375 2.3125 6.97917 2.1875 6.3125C2.14583 6.08333 2.125 5.85417 2.125 5.625C2.125 5.27083 2.1875 4.88542 2.3125 4.46875C2.45833 4.03125 2.70833 3.61458 3.0625 3.21875C3.41667 2.80208 3.85417 2.45833 4.375 2.1875C4.89583 1.89583 5.44792 1.69792 6.03125 1.59375C6.03125 1.28125 6.10417 1.02083 6.25 0.8125C6.39583 0.604167 6.64583 0.5 7 0.5C7.29167 0.5 7.53125 0.59375 7.71875 0.78125C7.90625 0.96875 8 1.20833 8 1.5C8 1.54167 7.98958 1.57292 7.96875 1.59375C8.51042 1.69792 9.03125 1.88542 9.53125 2.15625C10.0312 2.42708 10.4583 2.77083 10.8125 3.1875C11.1667 3.60417 11.4062 4.02083 11.5312 4.4375C11.6562 4.85417 11.7188 5.21875 11.7188 5.53125C11.7188 5.78125 11.6875 6.04167 11.625 6.3125C11.5 6.97917 11.4375 7.59375 11.4375 8.15625C11.4375 8.63542 11.5104 9.1875 11.6562 9.8125C11.8229 10.4375 12.0833 11.0312 12.4375 11.5938C12.7917 12.1354 13.1354 12.5521 13.4688 12.8438C13.8229 13.1354 14 13.3542 14 13.5C14 13.7917 13.9062 14.0312 13.7188 14.2188C13.5312 14.4062 13.2917 14.5 13 14.5H9C9 15.0417 8.80208 15.5104 8.40625 15.9062C8.01042 16.3021 7.54167 16.5 7 16.5C6.45833 16.5 5.98958 16.3021 5.59375 15.9062C5.19792 15.5104 5 15.0417 5 14.5H1C0.708333 14.5 0.46875 14.4062 0.28125 14.2188C0.09375 14.0312 0 13.7917 0 13.5ZM1.21875 13.5H12.75C12.5417 13.2708 12.2708 12.9583 11.9375 12.5625C11.625 12.1458 11.3333 11.6354 11.0625 11.0312C10.8125 10.4271 10.6458 9.85417 10.5625 9.3125C10.5 8.75 10.4688 8.3125 10.4688 8C10.4688 7.41667 10.5312 6.79167 10.6562 6.125C10.6979 5.91667 10.7188 5.71875 10.7188 5.53125C10.7188 5.23958 10.6562 4.9375 10.5312 4.625C10.4062 4.3125 10.25 4.04167 10.0625 3.8125C9.66667 3.33333 9.22917 3 8.75 2.8125C8.27083 2.60417 7.6875 2.5 7 2.5C6.33333 2.5 5.72917 2.60417 5.1875 2.8125C4.66667 3 4.20833 3.33333 3.8125 3.8125C3.60417 4.04167 3.42708 4.32292 3.28125 4.65625C3.15625 4.96875 3.09375 5.27083 3.09375 5.5625C3.09375 5.72917 3.11458 5.91667 3.15625 6.125C3.28125 6.79167 3.34375 7.41667 3.34375 8C3.34375 8.3125 3.30208 8.75 3.21875 9.3125C3.15625 9.85417 3.01042 10.4271 2.78125 11.0312C2.55208 11.6354 2.28125 12.1458 1.96875 12.5625C1.67708 12.9583 1.42708 13.2708 1.21875 13.5Z" fill="#D1E8FF"/>
</svg>
